# xmcd
#
# Track frame offsets: 
#        150
#        12816
#        25835
#        39208
#        51282
#        63612
#        75913
#        88146
#        100094
#        113686
#        127594
#        140393
#        153171
#        164265
#        176682
#        189275
#        202112
#        214775
#        227999
#        240301
#        253637
#        267154
#        280208
#        293199
#        304852
#        318327
#
# Disc length: 4406 seconds
#
# Revision: 0
# Processed by: cddbd v1.5.1PL0 Copyright (c) Steve Scherf et al.
# Submitted via: ExactAudioCopy v0.95a5
#
DISCID=5911341a
DTITLE=Hawkshaw Hawkins - Unadulterated Early Hawkshaw Hawkins Singles
DYEAR=2003
DGENRE=Classic Country
TTITLE0=I Wonder Why You Said Goodbye
TTITLE1=Soldier's Last Letter
TTITLE2=There's A Little Bit Of Everything In Texas
TTITLE3=Wanted, Someone To Love Me
TTITLE4=I Didn't Have The Heart To Say Goodbye
TTITLE5=The Way I Love You
TTITLE6=I'll Get Along Somehow
TTITLE7=Walking The Floor Over You
TTITLE8=It's Been So Long Darling
TTITLE9=Would You Like To Have A Broken Heart
TTITLE10=There's A Teardrop In Your Eye
TTITLE11=That's All She Wrote
TTITLE12=The Longer We're Together (The More We Drift Apart)
TTITLE13=Yesterday's Kisses
TTITLE14=Pardon Me For Loving You
TTITLE15=Secrets Of My Heart
TTITLE16=Never Say Goodbye
TTITLE17=Sunny Side Of The Mountain
TTITLE18=After Yesterday
TTITLE19=That's When It's Coming Home To You
TTITLE20=Mean Old Bed Bug Blues
TTITLE21=Mean Mama Blues
TTITLE22=I'll Never Cry Over You
TTITLE23=I Hate Myself
TTITLE24=Teardrops From My Eyes
TTITLE25=I Love You A Thousand Ways
EXTD=
EXTT0=
EXTT1=
EXTT2=
EXTT3=
EXTT4=
EXTT5=
EXTT6=
EXTT7=
EXTT8=
EXTT9=
EXTT10=
EXTT11=
EXTT12=
EXTT13=
EXTT14=
EXTT15=
EXTT16=
EXTT17=
EXTT18=
EXTT19=
EXTT20=
EXTT21=
EXTT22=
EXTT23=
EXTT24=
EXTT25=
PLAYORDER=
